{"title":"How.Drugs.Work.Ecstasy.720p.WEBRiP-SiTRiNA.mkv","uid":10401808,"size":1040152686,"categoryP":"video","categoryS":"hd___tv_shows","magnet":"?xt=urn:btih:81750d488f5d0e4a9edecbf688f76ba79a6517c3&amp;dn=How.Drugs.Work.Ecstasy.720p.WEBRiP-SiTRiNA.mkv&amp;tr=udp%3A%2F%2Ftracker.openbittorrent.com%3A80&amp;tr=udp%3A%2F%2Fopen.demonii.com%3A1337&amp;tr=udp%3A%2F%2Ftracker.coppersurfer.tk%3A6969&amp;tr=udp%3A%2F%2Fexodus.desync.com%3A6969","seeders":1,"leechers":0,"uploader":"Sitrina","files":-1,"time":1403378030,"description":"IMDB: http://www.imdb.com/title/tt3014646/?ref_=tt_ov_inf\nRipped from NRK\nContains Norwegian subs (not hardcoded, but muxed in)\n\n\nGeneral\nUnique ID                                : 180057189117764469416850472814615186138 (0x8775C0D32F10C334E374AF6377E3CADA)\nComplete name                            : How.Drugs.Work.Ecstasy.720p.WEBRiP-SiTRiNA.mkv\nFormat                                   : Matroska\nFormat version                           : Version 4 / Version 2\nFile size                                : 992 MiB\nDuration                                 : 56mn 59s\nOverall bit rate                         : 2 434 Kbps\nEncoded date                             : UTC 2014-06-20 22:35:00\nWriting application                      : mkvmerge v6.9.1 ('Blue Panther') 64bit built on Apr 21 2014 16:21:33\nWriting library                          : Lavf55.33.100\n\nVideo\nID                                       : 1\nFormat                                   : AVC\nFormat/Info                              : Advanced Video Codec\nFormat profile                           : &lt;a class=&quot;__cf_email__&quot; href=&quot;/cdn-cgi/l/email-protection&quot; data-cfemail=&quot;763e1f111e363a425847&quot;&gt;[email&amp;#160;protected]&lt;/a&gt;&lt;script cf-hash='f9e31' type=&quot;text/javascript&quot;&gt;\n/* &lt;![CDATA[ */!function(){try{var t=&quot;currentScript&quot;in document?document.currentScript:function(){for(var t=document.getElementsByTagName(&quot;script&quot;),e=t.length;e--;)if(t[e].getAttribute(&quot;cf-hash&quot;))return t[e]}();if(t&amp;&amp;t.previousSibling){var e,r,n,i,c=t.previousSibling,a=c.getAttribute(&quot;data-cfemail&quot;);if(a){for(e=&quot;&quot;,r=parseInt(a.substr(0,2),16),n=2;a.length-n;n+=2)i=parseInt(a.substr(n,2),16)^r,e+=String.fromCharCode(i);e=document.createTextNode(e),c.parentNode.replaceChild(e,c)}}}catch(u){}}();/* ]]&gt; */&lt;/script&gt;\nFormat settings, CABAC                   : Yes\nFormat settings, ReFrames                : 3 frames\nCodec ID                                 : V_MPEG4/ISO/AVC\nDuration                                 : 56mn 59s\nBit rate                                 : 2 193 Kbps\nWidth                                    : 1 280 pixels\nHeight                                   : 720 pixels\nDisplay aspect ratio                     : 16:9\nFrame rate mode                          : Constant\nFrame rate                               : 25.000 fps\nStandard                                 : PAL\nColor space                              : YUV\nChroma subsampling                       : 4:2:0\nBit depth                                : 8 bits\nScan type                                : Progressive\nBits/(Pixel*Frame)                       : 0.095\nStream size                              : 894 MiB (90%)\nDefault                                  : Yes\nForced                                   : No\nColor primaries                          : BT.709\nTransfer characteristics                 : BT.709\nMatrix coefficients                      : BT.709\nVARIANT_BITRATE                          : 2395000\n\nAudio\nID                                       : 2\nFormat                                   : AC-3\nFormat/Info                              : Audio Coding 3\nMode extension                           : CM (complete main)\nFormat settings, Endianness              : Big\nCodec ID                                 : A_AC3\nDuration                                 : 56mn 59s\nBit rate mode                            : Constant\nBit rate                                 : 192 Kbps\nChannel(s)                               : 2 channels\nChannel positions                        : Front: L R\nSampling rate                            : 48.0 KHz\nBit depth                                : 16 bits\nCompression mode                         : Lossy\nStream size                              : 78.3 MiB (8%)\nDefault                                  : Yes\nForced                                   : No\nVARIANT_BITRATE                          : 714000\n\nText\nID                                       : 3\nFormat                                   : UTF-8\nCodec ID                                 : S_TEXT/UTF8\nCodec ID/Info                            : UTF-8 Plain Text\nLanguage                                 : Norwegian\nDefault                                  : Yes\nForced                                   : No","torrent":{"xt":"urn:btih:81750d488f5d0e4a9edecbf688f76ba79a6517c3","amp;dn":"How.Drugs.Work.Ecstasy.720p.WEBRiP-SiTRiNA.mkv","amp;tr":["udp%3A%2F%2Ftracker.openbittorrent.com%3A80","udp%3A%2F%2Fopen.demonii.com%3A1337","udp%3A%2F%2Ftracker.coppersurfer.tk%3A6969","udp%3A%2F%2Fexodus.desync.com%3A6969"],"infoHash":"81750d488f5d0e4a9edecbf688f76ba79a6517c3","infoHashBuffer":{"type":"Buffer","data":[129,117,13,72,143,93,14,74,158,222,203,246,136,247,107,167,154,101,23,195]},"announce":[],"urlList":[]}}